<svg width="387" height="413" viewBox="0 0 387 413" fill="none" xmlns="http://www.w3.org/2000/svg">
<g filter="url(#filter0_d_756_2385)">
<path fill-rule="evenodd" clip-rule="evenodd" d="M150.03 110.646C173.136 110.574 194.745 106.431 217.838 108.795C244.235 111.498 272.511 110.101 294.342 125.419C317.468 141.645 329.541 168.112 339.064 193.855C349.465 221.969 358.781 251.757 351.523 279.993C343.956 309.427 326.602 338.736 298.445 351.868C271.154 364.596 238.062 343.481 207.593 347.121C173.333 351.212 140.74 392.63 110.833 374.275C80.1666 355.455 103.129 307.051 89.6578 274.74C78.8872 248.906 48.7752 233.708 41.0912 206.994C31.7642 174.57 17.2175 131.339 42.0824 109.347C68.501 85.9822 113.328 110.762 150.03 110.646Z" fill="#EF5858"/>
</g>
<path fill-rule="evenodd" clip-rule="evenodd" d="M146.016 95.8885C168.581 93.5681 189.464 87.2406 212.147 87.4076C238.076 87.5986 265.618 83.4243 287.767 96.9326C311.229 111.241 324.449 137.074 335.138 162.416C346.811 190.092 357.516 219.581 351.949 249.097C346.145 279.867 330.774 311.46 303.98 327.597C278.01 343.238 244.55 324.91 214.985 331.586C181.744 339.092 152.141 384.522 121.94 368.701C90.9733 352.478 110.792 300.856 95.8933 269.196C83.9809 243.882 53.7503 231.301 44.8052 204.791C33.9476 172.612 17.4092 129.914 40.5104 105.058C65.055 78.6478 110.174 99.5743 146.016 95.8885Z" fill="#FFC600"/>
<path d="M173.906 176.516C173.906 176.516 172.666 178.661 173.906 180.444H147.775V176.516H173.906Z" fill="#D0F3F1"/>
<path d="M174.334 180.579C174.334 180.67 174.289 180.76 174.221 180.828C174.154 180.895 174.063 180.941 173.973 180.941H135.104C134.405 180.941 133.818 180.376 133.818 179.654V177.442C133.818 176.742 134.382 176.155 135.104 176.155H173.973C174.176 176.155 174.334 176.313 174.334 176.516C174.334 176.719 174.176 176.877 173.973 176.877H149.826C149.353 176.877 148.969 177.261 148.969 177.735V179.383C148.969 179.857 149.353 180.241 149.826 180.241H173.973C174.176 180.218 174.334 180.376 174.334 180.579Z" fill="#EE504F"/>
<path d="M174.334 180.512C174.356 180.625 174.311 180.76 174.244 180.828C174.176 180.895 174.086 180.941 173.996 180.941H149.623C148.812 180.941 148.158 180.286 148.158 179.473V177.622C148.158 176.81 148.812 176.155 149.623 176.155H173.996C174.176 176.155 174.334 176.29 174.356 176.471C174.379 176.674 174.221 176.855 173.996 176.855H149.849C149.375 176.855 148.992 177.239 148.992 177.713V179.36C148.992 179.834 149.375 180.218 149.849 180.218H173.996C174.131 180.218 174.289 180.331 174.334 180.512Z" fill="#D34848"/>
<path d="M173.748 188.615C173.748 188.615 172.463 191.888 173.748 194.755H154.11V188.615H173.748Z" fill="#D0F3F1"/>
<path d="M174.447 194.846C174.447 194.981 174.402 195.117 174.311 195.207C174.221 195.297 174.109 195.342 173.973 195.342H132.511C131.429 195.342 130.527 194.462 130.527 193.356V189.925C130.527 188.841 131.406 187.938 132.511 187.938H173.973C174.221 187.938 174.447 188.141 174.447 188.39C174.447 188.661 174.244 188.864 173.996 188.864H156.387C155.508 188.864 154.786 189.586 154.786 190.466V192.746C154.786 193.627 155.508 194.349 156.387 194.349H173.973C174.221 194.417 174.447 194.597 174.447 194.846Z" fill="#197A83"/>
<path d="M174.447 194.846C174.447 194.981 174.402 195.116 174.311 195.207C174.221 195.297 174.108 195.342 173.973 195.342H155.959C154.741 195.342 153.749 194.349 153.749 193.13V190.173C153.749 188.954 154.741 187.961 155.959 187.961H173.973C174.221 187.961 174.447 188.164 174.447 188.412C174.447 188.683 174.244 188.886 173.996 188.886H156.387C155.508 188.886 154.786 189.609 154.786 190.489V192.769C154.786 193.649 155.508 194.372 156.387 194.372H173.973C174.221 194.417 174.447 194.597 174.447 194.846Z" fill="#156468"/>
<path d="M172.192 190.083H161.235V190.15H172.192V190.083Z" fill="#373133"/>
<path d="M167.525 190.083L168.337 193.739L169.171 192.408V190.353L167.525 190.083Z" fill="#38B0A9"/>
<path d="M171.583 191.031V193.739L169.983 192.543L168.314 193.739V191.031C168.314 190.376 167.525 190.083 167.525 190.083H171.042C171.583 190.241 171.583 190.94 171.583 191.031Z" fill="#6D68E0"/>
<path d="M171.583 191.031H168.337V191.008C168.337 190.354 167.548 190.06 167.548 190.06H171.065C171.583 190.241 171.583 190.94 171.583 191.031Z" fill="#5A5ABA"/>
<path d="M132.443 181.279C132.443 181.279 133.751 184.846 132.443 187.532H158.213V181.279H132.443Z" fill="#D0F3F1"/>
<path d="M175.957 183.265V185.613C175.957 186.922 174.898 187.983 173.59 187.983H132.488C132.285 187.983 132.128 187.825 132.128 187.622V187.6C132.128 187.396 132.285 187.238 132.488 187.238H155.846C156.77 187.238 157.537 186.471 157.537 185.545V183.356C157.537 182.43 156.77 181.663 155.846 181.663H132.488C132.376 181.663 132.285 181.618 132.218 181.55C132.15 181.482 132.105 181.369 132.105 181.256C132.128 181.053 132.285 180.918 132.488 180.918H173.59C174.898 180.895 175.957 181.956 175.957 183.265Z" fill="#F1884F"/>
<path d="M158.597 183.04V185.861C158.597 187.035 157.65 187.983 156.477 187.983H132.511C132.308 187.983 132.15 187.825 132.15 187.622V187.6C132.15 187.396 132.308 187.238 132.511 187.238H155.869C156.793 187.238 157.56 186.471 157.56 185.545V183.356C157.56 182.43 156.793 181.663 155.869 181.663H132.511C132.398 181.663 132.308 181.618 132.24 181.55C132.173 181.482 132.128 181.369 132.128 181.256C132.15 181.053 132.308 180.918 132.511 180.918H156.477C157.65 180.895 158.597 181.866 158.597 183.04Z" fill="#D37146"/>
<path d="M147.143 185.455H136.186V185.523H147.143V185.455Z" fill="#373133"/>
<path d="M144.573 185.433H143.175V187.216H144.573V185.433Z" fill="#38B0A9"/>
<path d="M143.761 186.99V192.656L142.228 191.279L140.763 192.656V187.216L143.761 186.99Z" fill="#A82329"/>
<path d="M144.573 185.433H141.597C141.597 185.433 141.597 186.764 140.763 187.216H143.739C143.739 187.216 144.573 186.99 144.573 185.433Z" fill="#EE504F"/>
<path d="M168.156 169.338C168.156 169.338 167.142 172.205 168.156 175.365H142.318V169.451L168.156 169.338Z" fill="#D0F3F1"/>
<path d="M143.513 168.503H168.201C168.494 168.503 168.72 168.728 168.72 169.022C168.72 169.315 168.494 169.541 168.201 169.541H143.761C143.062 169.541 142.476 170.105 142.476 170.828V173.83C142.476 174.53 143.04 175.117 143.761 175.117H168.201C168.494 175.117 168.72 175.342 168.72 175.636V175.681C168.72 175.974 168.494 176.2 168.201 176.2H143.513C142.499 176.2 141.665 175.365 141.665 174.349V170.399C141.665 169.338 142.499 168.503 143.513 168.503Z" fill="#6D68E0"/>
<path d="M164.865 173.333H153.907V173.401H164.865V173.333Z" fill="#373133"/>
<path d="M161.302 173.333H160.152V175.094H161.302V173.333Z" fill="#38B0A9"/>
<path d="M160.942 174.891V179.496L162.317 178.119L163.715 179.496V175.117L160.942 174.891Z" fill="#156468"/>
<path d="M160.152 173.333H162.881C162.881 173.333 162.881 174.665 163.715 175.094H160.987C160.987 175.117 160.152 174.891 160.152 173.333Z" fill="#197A83"/>
<path d="M50.3526 172.498C50.3526 172.498 48.2783 202.34 84.2846 197.351L86.3588 202.318C86.3588 202.318 96.5948 182.724 79.7302 179.519C76.3709 178.887 66.0673 179.112 66.0673 179.112L50.3526 172.498Z" fill="#5CC2AD"/>
<path d="M55.741 228.029C55.741 228.029 51.5925 230.512 44.1523 241.279L41.2438 235.478L51.1867 224.71L55.741 228.029Z" fill="black"/>
<path d="M44.1523 241.279C44.1523 241.279 35.8779 232.566 40.4322 224.71C40.4322 224.71 44.5807 217.668 52.0209 218.503C52.0209 218.503 64.8497 204.417 80.5869 213.108C80.5869 213.108 83.9012 231.753 52.4493 230.105C52.4268 230.083 42.0781 230.083 44.1523 241.279Z" fill="#5CC2AD"/>
<path d="M43.8141 241.347C42.0781 233.536 44.3327 227.645 46.5422 224.101C48.9321 220.263 51.6827 218.277 51.818 218.209L52.2013 218.774C52.1787 218.796 49.4281 220.76 47.1058 224.507C44.9865 227.938 42.7995 233.649 44.4679 241.211L43.8141 241.347Z" fill="#17311D"/>
<path d="M96.0986 217.464C96.0986 217.464 99.0071 207.938 108.093 208.751C108.093 208.751 113.098 201.415 122.59 207.916C125.905 210.196 128.791 212.882 127.551 223.243C127.551 223.243 124.439 218.074 116.368 217.848C110.889 217.735 96.0986 217.464 96.0986 217.464Z" fill="#5CC2AD"/>
<path d="M127.235 223.356C124.597 215.455 119.502 212.024 115.669 210.534C111.52 208.932 107.981 209.18 107.935 209.18L107.89 208.503C108.048 208.48 111.633 208.232 115.917 209.88C119.862 211.415 125.161 214.959 127.866 223.108L127.235 223.356Z" fill="#17311D"/>
<path d="M88.0271 237.148H74.3642C71.4557 237.148 68.8855 238.615 67.1719 239.947C65.7064 241.076 64.8497 242.114 64.8497 242.114C64.5792 238.751 65.9995 235.591 67.9611 233.378C68.908 232.318 69.9903 231.482 71.0499 230.941C83.9238 224.485 88.0271 237.148 88.0271 237.148Z" fill="#197A83"/>
<path d="M82.6386 237.171C81.0603 228.977 74.6798 229.744 74.6347 229.767L74.567 229.315C74.6347 229.315 81.4211 228.48 83.0895 237.081L82.6386 237.171Z" fill="#020403"/>
<path d="M83.1878 235.911L82.0757 236.096L85.8472 258.81L86.9593 258.625L83.1878 235.911Z" fill="#22452A"/>
<path d="M89.8309 259.18L88.7036 259.022C90.4847 246.584 90.124 239.541 89.5378 234.304C88.5232 225.23 85.6373 220.105 83.3827 217.374C80.9703 214.439 78.7607 213.649 78.7382 213.627L79.1214 212.566C79.2116 212.611 81.579 213.446 84.1943 216.584C86.5617 219.428 89.6054 224.778 90.6651 234.169C91.2513 239.496 91.612 246.606 89.8309 259.18Z" fill="#5CC2AD"/>
<path d="M89.7407 235.207C88.1174 214.236 85.2315 197.397 85.1864 197.239L86.2911 197.035C86.3137 197.193 89.2221 214.078 90.8455 235.117L89.7407 235.207Z" fill="#5CC2AD"/>
<path d="M94.994 260.263L93.8892 260.037C100.833 227.329 100.924 215.094 100.924 214.981H102.051C102.028 215.094 101.961 227.419 94.994 260.263Z" fill="#5CC2AD"/>
<path d="M86.246 202.182C86.2234 202.047 84.0815 188.638 74.8376 184.214C72.3124 182.995 64.9624 179.27 64.8948 179.248L65.2104 178.638C65.278 178.683 72.6281 182.408 75.1307 183.604C84.6903 188.187 86.8773 201.956 86.8998 202.092L86.246 202.182Z" fill="#17311D"/>
<path d="M67.1719 239.947C65.7064 241.076 64.8497 242.114 64.8497 242.114C64.5792 238.751 65.9995 235.591 67.9611 233.378C67.5552 234.959 66.9916 237.6 67.1719 239.947Z" fill="#020403"/>
<path d="M70.4412 256.832H110.168L104.373 297.848H76.2356L70.4412 256.832Z" fill="#197A83"/>
<path d="M136.141 198.006L108.747 297.825H103.494L130.91 198.006H136.141Z" fill="#38B0A9"/>
<path d="M130.91 198.006L158.304 297.825H163.557L136.141 198.006H130.91Z" fill="#38B0A9"/>
<path d="M297.233 198.006H248.398V297.825H297.233V198.006Z" fill="#38B0A9"/>
<path d="M153.344 198.006L180.76 297.825H185.99L158.597 198.006H153.344Z" fill="#38B0A9"/>
<path d="M155.395 198.006L182.789 297.825H188.042L160.626 198.006H155.395Z" fill="#D0F3F1"/>
<path d="M158.597 198.006L131.181 297.825H125.95L153.344 198.006H158.597Z" fill="#38B0A9"/>
<path d="M160.626 198.006L133.232 297.825H127.979L155.395 198.006H160.626Z" fill="#D0F3F1"/>
<path d="M142.859 195.387V200.624H296.196V297.825H340.229V195.387H142.859Z" fill="#D0F3F1"/>
<path d="M149.556 195.387H115.443V200.647H149.556V195.387Z" fill="#38B0A9"/>
<path d="M299.42 202.972V294.913H337.906V202.972H299.42ZM336.734 293.739H300.592V276.674H312.249V279.744H326.205V276.674H336.757V293.739H336.734ZM336.734 275.5H300.592V257.396H312.249V260.466H326.205V257.396H336.757V275.5H336.734ZM336.734 256.245H300.592V239.699H312.249V242.656H326.205V239.699H336.757V256.245H336.734ZM336.734 238.525H300.592V222.092H312.249V225.162H326.205V222.092H336.757V238.525H336.734ZM336.734 220.918H300.592V204.123H312.249V207.035H326.205V204.123H336.757V220.918H336.734Z" fill="#38B0A9"/>
<path d="M199.653 177.193L196.948 195.478H210.25L212.955 177.193H199.653Z" fill="#373133"/>
<path d="M169.329 136.765L172.057 176.99C172.169 178.706 173.59 180.038 175.303 180.038H238.14C240.033 180.038 241.521 178.435 241.386 176.561L238.658 136.336C238.545 134.62 237.125 133.288 235.411 133.288H172.575C170.704 133.288 169.216 134.891 169.329 136.765Z" fill="#373133"/>
<path d="M202.133 177.193L199.428 195.478H212.73L215.436 177.193H202.133Z" fill="#6D68E0"/>
<path d="M240.868 180.06H178.031C176.318 180.06 174.898 178.728 174.785 177.013L174.447 172.114L172.034 136.787C171.899 134.891 173.409 133.288 175.281 133.288H238.117C239.831 133.288 241.251 134.62 241.364 136.336L243.799 172.114L244.092 176.561C244.25 178.458 242.761 180.06 240.868 180.06Z" fill="#6D68E0"/>
<path d="M177.828 171.866L175.664 139.677C175.551 138.051 176.904 136.674 178.595 136.674H235.389C236.944 136.674 238.23 137.826 238.32 139.293L240.507 171.866H177.828Z" fill="white"/>
<path d="M194.355 192.769H179.362V195.478H194.355V192.769Z" fill="#373133"/>
<path d="M233.585 192.769H193.566V195.478H233.585V192.769Z" fill="#6D68E0"/>
<path d="M190.838 175.749H181.504V181.844C181.504 181.844 181.504 184.236 183.893 184.462H193.453C193.453 184.462 191.379 184.349 190.95 181.956L190.838 175.749Z" fill="#FC2B45"/>
<path d="M202.336 173.266H193.002V179.36C193.002 179.36 193.002 181.753 195.392 181.979H204.952C204.952 181.979 202.877 181.866 202.449 179.473L202.336 173.266Z" fill="#FD9E28"/>
<path d="M189.776 136.619L188.201 136.72L190.455 171.932L192.03 171.831L189.776 136.619Z" fill="#D0F3F1"/>
<path d="M222.47 136.619L220.895 136.72L223.149 171.932L224.724 171.831L222.47 136.619Z" fill="#D0F3F1"/>
<path d="M193.002 143.221L193.678 153.153H218.93L218.254 143.221H193.002Z" fill="#D0F3F1"/>
<path d="M224.792 143.582L225.085 147.735H235.614L235.321 143.582H224.792Z" fill="#D0F3F1"/>
<path d="M225.469 152.385L225.762 156.539H236.291L235.998 152.385H225.469Z" fill="#D0F3F1"/>
<path d="M226.145 161.189L226.438 165.342H236.967L236.674 161.189H226.145Z" fill="#D0F3F1"/>
<path d="M193.904 157.667L194.58 167.6H219.832L219.156 157.667H193.904Z" fill="#D0F3F1"/>
<path d="M202.246 139.496H193.002V140.625H202.246V139.496Z" fill="#D0F3F1"/>
<path d="M186.689 139.609H177.445V140.738H186.689V139.609Z" fill="#D0F3F1"/>
<path d="M186.915 142.769H177.671V143.898H186.915V142.769Z" fill="#D0F3F1"/>
<path d="M187.14 145.929H177.896V147.058H187.14V145.929Z" fill="#D0F3F1"/>
<path d="M187.366 149.09H178.122V150.218H187.366V149.09Z" fill="#D0F3F1"/>
<path d="M187.591 152.25H178.347V153.379H187.591V152.25Z" fill="#D0F3F1"/>
<path d="M230.429 139.834H224.567V140.963H230.429V139.834Z" fill="#D0F3F1"/>
<path d="M278.204 150.557L278.227 144.033C278.227 144.033 267.54 146.787 272.613 126.584C272.613 126.584 279.444 119.406 287.944 126.584L288.846 141.257L290.063 149.902L278.204 150.557Z" fill="#FCBB9D"/>
<path d="M293.468 126.675C294.347 118.458 289.815 119.429 289.815 119.429C285.261 112.905 282.961 116.787 282.961 116.787C279.129 113.356 277.934 116.675 277.934 116.675C274.168 115.117 273.492 118.458 273.492 118.458C269.952 117.781 270.155 121.122 270.155 121.122C268.825 121.347 268.554 123.085 268.599 123.785C268.915 128.255 272.094 128.593 273.853 128.435L274.259 133.875C274.304 134.395 274.8 134.733 275.296 134.575C275.589 134.485 275.792 134.237 275.859 133.943C275.882 133.875 275.882 133.808 275.882 133.763C276.265 131.821 279.399 130.331 279.85 133.763C279.85 133.763 280.188 138.187 277.866 138.277C277.866 138.277 280.369 143.559 286.321 142.453C287.313 142.273 293.829 140.625 293.31 129.27C293.513 127.758 293.468 126.675 293.468 126.675Z" fill="#373133"/>
<path d="M268.532 178.435L259.829 186.968C259.04 187.735 258.048 188.255 256.966 188.458L228.738 193.898L221.298 194.349C221.298 194.349 222.65 192.544 224.454 192.092H219.494L214.556 194.237C213.97 194.485 213.294 194.259 213.001 193.695C212.73 193.176 212.865 192.521 213.339 192.137L218.592 188.142C219.449 187.487 220.531 187.171 221.613 187.284L228.602 187.939L231.173 188.864L253.877 178.435L264.586 167.713L268.532 178.435Z" fill="#CC8772"/>
<path d="M218.705 277.848L214.173 287.938L212.257 292.205H203.779L205.944 285.907L208.672 277.983L218.705 277.848Z" fill="#FCBB9D"/>
<path d="M213.564 289.315C212.82 290.083 209.799 292.633 204.816 289.157C204.771 289.135 204.726 289.112 204.659 289.157L190.883 296.539C190.229 296.877 190.477 297.87 191.221 297.87H213.699C214.737 297.87 215.503 296.9 215.278 295.907L213.812 289.428C213.79 289.27 213.654 289.225 213.564 289.315Z" fill="#4F216C"/>
<path d="M252.073 277.848L248.939 288.006L247.654 292.204H239.177L240.327 286.358L242.04 277.758L252.073 277.848Z" fill="#FCBB9D"/>
<path d="M252.073 277.848L248.939 288.006L240.327 286.358L242.04 277.758L252.073 277.848Z" fill="#E6A68A"/>
<path d="M248.511 289.315C247.767 290.083 244.746 292.633 239.763 289.157C239.718 289.135 239.673 289.112 239.605 289.157L225.829 296.539C225.176 296.877 225.424 297.87 226.168 297.87H248.646C249.683 297.87 250.45 296.9 250.224 295.907L248.759 289.428C248.736 289.27 248.601 289.225 248.511 289.315Z" fill="#4F216C"/>
<path d="M249.255 219.857L238.996 284.755L253.877 285.658L270.899 219.857H249.255Z" fill="#311547"/>
<path d="M218.705 277.848L214.173 287.938L205.944 285.907L208.672 277.983L218.705 277.848Z" fill="#E6A68A"/>
<path d="M262.895 180.015L257.755 184.349L255.23 186.471C254.621 186.99 253.899 187.329 253.133 187.51L218.479 195.365C215.729 195.839 212.933 194.688 210.926 193.514C210.25 193.401 209.596 193.311 208.965 193.221C207.905 195.455 204.952 196.291 204.952 196.291L206.214 191.708C206.395 191.076 206.8 190.557 207.364 190.241L211.806 187.713C212.91 187.081 214.241 187.058 215.368 187.6L216.991 188.39L247.677 177.826L252.299 172.724L254.824 169.925L262.895 180.015Z" fill="#FCBB9D"/>
<path d="M262.895 180.015L257.755 184.349L252.299 172.769L254.824 169.97L262.895 180.015Z" fill="#E6A68A"/>
<path d="M268.599 202.701L266.119 205.862L242.333 208.728C236.291 209.451 231.173 213.514 229.076 219.225L205.403 283.401L221.41 285.884L246.482 231.776C246.482 231.776 307.424 241.686 300.66 209.902L268.599 202.701Z" fill="#4F216C"/>
<path d="M273.717 148.954C273.56 148.999 268.329 151.212 265.398 155.094C260.393 161.731 253.065 171.37 253.065 171.37L261.137 182.272L264.812 178.616L264.361 197.351L261.768 205.974C261.768 205.974 266.007 209.225 269.659 210.941C284.089 217.713 303.478 215.004 303.478 215.004L301.134 169.789C301.134 169.789 301.742 153.83 295.362 148.864C295.362 148.864 287.674 144.914 273.717 148.954Z" fill="#F1884F"/>
<path d="M268.345 175.727L260.902 182.052L261.34 182.568L268.783 176.243L268.345 175.727Z" fill="#373133"/>
<path d="M279.241 254.53H275.341V281.459H279.241V254.53Z" fill="#D0F3F1"/>
<path d="M272.162 240.67V251.956C272.162 254.801 274.461 257.103 277.302 257.103C280.143 257.103 282.443 254.801 282.443 251.956V240.67H272.162Z" fill="#D0F3F1"/>
<path d="M261.182 237.035V237.938C261.182 240.038 262.873 241.731 264.969 241.731H294.798C296.895 241.731 298.586 240.038 298.586 237.938V237.035H261.182Z" fill="#D0F3F1"/>
<path d="M275.25 231.753V238.548H303.568C305.44 238.548 306.95 237.035 306.95 235.162C306.95 233.288 305.44 231.776 303.568 231.776H275.25V231.753Z" fill="#D34848"/>
<path d="M251.126 235.139C251.126 237.013 252.637 238.525 254.508 238.525H274.664C276.536 238.525 278.046 237.013 278.046 235.139C278.046 233.266 276.536 231.753 274.664 231.753H254.508C252.637 231.753 251.126 233.266 251.126 235.139Z" fill="#EE504F"/>
<path d="M251.149 288.096L269.93 283.04V282.972C269.93 278.931 273.199 275.658 277.235 275.658C281.27 275.658 284.54 278.931 284.54 282.972V283.333L302.216 288.074C303.32 288.367 303.997 289.473 303.749 290.602C303.501 291.73 302.396 292.453 301.269 292.227L282.984 288.706H277.099H276.31H270.403L252.118 292.227C250.991 292.453 249.886 291.73 249.638 290.602C249.39 289.496 250.044 288.39 251.149 288.096Z" fill="#D0F3F1"/>
<path d="M297.887 297.848C299.767 297.848 301.291 296.322 301.291 294.439C301.291 292.557 299.767 291.031 297.887 291.031C296.007 291.031 294.482 292.557 294.482 294.439C294.482 296.322 296.007 297.848 297.887 297.848Z" fill="#373133"/>
<path d="M297.887 296.335C298.933 296.335 299.781 295.486 299.781 294.439C299.781 293.392 298.933 292.543 297.887 292.543C296.841 292.543 295.993 293.392 295.993 294.439C295.993 295.486 296.841 296.335 297.887 296.335Z" fill="#38B0A9"/>
<path d="M255.568 297.848C257.448 297.848 258.972 296.322 258.972 294.439C258.972 292.557 257.448 291.031 255.568 291.031C253.687 291.031 252.163 292.557 252.163 294.439C252.163 296.322 253.687 297.848 255.568 297.848Z" fill="#373133"/>
<path d="M255.568 296.335C256.614 296.335 257.462 295.486 257.462 294.439C257.462 293.392 256.614 292.543 255.568 292.543C254.522 292.543 253.674 293.392 253.674 294.439C253.674 295.486 254.522 296.335 255.568 296.335Z" fill="#38B0A9"/>
<path d="M202.404 101.912H183.645C183.217 101.912 182.856 102.273 182.856 102.702V116.991C182.856 117.419 183.217 117.781 183.645 117.781H194.828L200.149 122.453V117.781H202.381C202.81 117.781 203.17 117.419 203.17 116.991V102.702C203.193 102.273 202.832 101.912 202.404 101.912Z" fill="#D0F3F1"/>
<path d="M190.928 105.885V113.65L196.993 109.767L190.928 105.885Z" fill="#E8315D"/>
<path d="M252.096 91.5052C252.096 90.828 251.532 90.2637 250.856 90.2637H224.86C224.183 90.2637 223.62 90.828 223.62 91.5052V112.002C223.62 112.679 224.183 113.243 224.86 113.243H227.475V119.338L232.796 113.243H250.856C251.532 113.243 252.096 112.679 252.096 112.002V91.5052Z" fill="#D0F3F1"/>
<path d="M247.992 96.6519H228.152V98.4577H247.992V96.6519Z" fill="#38B0A9"/>
<path d="M248.015 100.512H228.174V102.318H248.015V100.512Z" fill="#38B0A9"/>
<path d="M248.015 104.395H228.174V106.2H248.015V104.395Z" fill="#38B0A9"/>
<path d="M77.1149 135.613V143.085C77.1149 144.011 77.8589 144.733 78.7607 144.733H136.952C137.877 144.733 138.598 143.988 138.598 143.085V135.613C138.598 134.688 137.854 133.966 136.952 133.966H78.7607C77.8589 133.966 77.1149 134.71 77.1149 135.613Z" fill="#D0F3F1"/>
<path d="M77.1149 149.428V156.9C77.1149 157.826 77.8589 158.548 78.7607 158.548H136.952C137.877 158.548 138.598 157.803 138.598 156.9V149.428C138.598 148.503 137.854 147.781 136.952 147.781H78.7607C77.8589 147.781 77.1149 148.525 77.1149 149.428Z" fill="#D0F3F1"/>
<path d="M118.713 138.774H80.6095V139.925H118.713V138.774Z" fill="#38B0A9"/>
<path d="M83.1797 153.175L84.7128 154.033L84.1943 154.959L82.616 154.033L82.6386 155.771H81.6015L81.624 154.033L80.0684 154.936L79.5272 154.011L81.0829 153.153L79.5272 152.295L80.0684 151.37L81.624 152.295L81.6015 150.557H82.6386L82.616 152.295L84.1943 151.37L84.7128 152.295L83.1797 153.175Z" fill="#38B0A9"/>
<path d="M91.6571 153.175L93.1903 154.033L92.6717 154.959L91.0935 154.033L91.116 155.771H90.0789L90.1014 154.033L88.5457 154.936L88.0046 154.011L89.5603 153.153L88.0046 152.295L88.5457 151.37L90.1014 152.295L90.0789 150.557H91.116L91.0935 152.295L92.6717 151.37L93.1903 152.295L91.6571 153.175Z" fill="#38B0A9"/>
<path d="M100.134 153.175L101.668 154.033L101.149 154.959L99.5708 154.033L99.5933 155.771H98.5562L98.5787 154.033L97.0231 154.936L96.4819 154.011L98.0377 153.153L96.4819 152.295L97.0231 151.37L98.5787 152.295L98.5562 150.557H99.5933L99.5708 152.295L101.149 151.37L101.668 152.295L100.134 153.175Z" fill="#38B0A9"/>
<path d="M108.612 153.175L110.145 154.033L109.626 154.959L108.048 154.033L108.071 155.771H107.034L107.056 154.033L105.5 154.936L104.959 154.011L106.515 153.153L104.959 152.295L105.5 151.37L107.056 152.295L107.034 150.557H108.071L108.048 152.295L109.626 151.37L110.145 152.295L108.612 153.175Z" fill="#38B0A9"/>
<path d="M117.179 153.175L118.712 154.033L118.194 154.959L116.616 154.033L116.638 155.771H115.601L115.624 154.033L114.068 154.936L113.527 154.011L115.083 153.153L113.527 152.295L114.068 151.37L115.624 152.295L115.601 150.557H116.638L116.616 152.295L118.194 151.37L118.712 152.295L117.179 153.175Z" fill="#38B0A9"/>
<path d="M355.56 297.735H50.2849V298.864H355.56V297.735Z" fill="#373133"/>
<defs>
<filter id="filter0_d_756_2385" x="13.2977" y="94.3135" width="345.803" height="299.63" filterUnits="userSpaceOnUse" color-interpolation-filters="sRGB">
<feFlood flood-opacity="0" result="BackgroundImageFix"/>
<feColorMatrix in="SourceAlpha" type="matrix" values="0 0 0 0 0 0 0 0 0 0 0 0 0 0 0 0 0 0 127 0" result="hardAlpha"/>
<feOffset dx="-5" dy="5"/>
<feGaussianBlur stdDeviation="5"/>
<feColorMatrix type="matrix" values="0 0 0 0 0.937255 0 0 0 0 0.345098 0 0 0 0 0.345098 0 0 0 0.2 0"/>
<feBlend mode="normal" in2="BackgroundImageFix" result="effect1_dropShadow_756_2385"/>
<feBlend mode="normal" in="SourceGraphic" in2="effect1_dropShadow_756_2385" result="shape"/>
</filter>
</defs>
</svg>
